<svg width="3760" height="654" viewBox="0 0 3760 654" fill="none" xmlns="http://www.w3.org/2000/svg">
<path d="M2304.22 350.43L2565.62 324.332L2304.22 298.201L2470.59 94.986L2267.24 261.271L2241.11 0L2214.96 261.271L2011.63 94.986L2178 298.201L1916.59 324.332L2178 350.43L2011.63 553.667L2214.96 387.404L2241.11 648.663L2267.24 387.404L2470.59 553.667L2304.22 350.43Z" fill="#BDFF00"/>
<path d="M266.022 6.56641V124.434H204.403V647.223H63.2754V125.096H0V6.56641H266.022ZM593.331 647.223H445.577L433.32 431.022H421.062V647.223H279.273V6.56641H452.867C498.142 6.56641 531.491 17.2716 552.913 38.682C574.336 60.0924 585.048 90.4422 585.048 129.731V285.011C585.048 318.122 577.428 344.829 562.19 365.134L593.331 647.223ZM421.062 325.735H424.376C434.756 325.735 439.946 315.361 439.946 294.613V149.596C439.946 133.262 434.756 125.096 424.376 125.096H421.062V325.735ZM766.592 647.223L763.941 530.018H738.764L736.114 647.223H589.025L634.411 6.56641H871.278L914.014 647.223H766.592ZM742.077 418.109H761.292L755.661 199.591V134.035H747.708V199.591L742.077 418.109ZM919.315 6.56641H1061.1V647.223H919.315V6.56641ZM1224.76 528.692H1308.24V647.223H1082.97V6.56641H1224.76V528.692ZM1459.97 528.692H1565.65V647.223H1318.18V6.56641H1563.66V125.096H1459.97V263.491H1559.69V374.736H1459.97V528.692ZM1897.27 647.223H1749.51L1737.26 431.022H1725V647.223H1583.21V6.56641H1756.8C1802.08 6.56641 1835.43 17.2716 1856.85 38.682C1878.27 60.0924 1888.98 90.4422 1888.98 129.731V285.011C1888.98 318.122 1881.36 344.829 1866.13 365.134L1897.27 647.223ZM1725 325.735H1728.31C1738.69 325.735 1743.88 315.361 1743.88 294.613V149.596C1743.88 133.262 1738.69 125.096 1728.31 125.096H1725V325.735Z" fill="#F5EFDF"/>
<path d="M2769.14 584.969C2762.74 609.91 2753.79 627.567 2742.3 637.941C2730.83 648.096 2713.26 653.172 2689.63 653.172C2659.82 653.172 2636.51 642.358 2619.73 620.727C2603.16 599.095 2594.88 565.874 2594.88 521.069V164.485C2594.88 107.097 2607.57 65.3799 2632.98 39.3342C2658.6 13.2885 2698.36 0.265625 2752.24 0.265625C2849.86 0.265625 2898.67 42.7554 2898.67 127.735V279.704H2755.57V125.086C2755.57 116.478 2752.36 112.174 2745.94 112.174C2739.76 112.174 2736.67 116.478 2736.67 125.086V532.656C2736.67 541.263 2740.43 545.569 2747.93 545.569C2755.22 545.569 2758.87 540.161 2758.87 529.346V385.321H2750.26V300.562H2898.67V647.213H2788.68L2775.11 584.969H2769.14ZM3080.89 647.213L3078.23 530.008H3053.05L3050.4 647.213H2903.31L2948.7 6.55645H3185.56L3228.3 647.213H3080.89ZM3056.35 418.099H3075.58L3069.95 199.581V134.025H3061.98V199.581L3056.35 418.099ZM3390.3 528.682H3495.98V647.213H3227.31V535.306L3326.36 125.086H3230.96V6.55645H3492.01L3490.02 116.147L3390.3 528.682ZM3654.33 528.682H3760V647.213H3512.54V6.55645H3758.02V125.086H3654.33V263.481H3754.05V374.726H3654.33V528.682Z" fill="#F5EFDF"/>
</svg>
