<svg width="70" height="70" viewBox="0 0 70 70" fill="none" xmlns="http://www.w3.org/2000/svg">
<path d="M68.3883 62.945L55.355 49.95C59.5601 44.5928 61.8418 37.9772 61.8333 31.1667C61.8333 25.1014 60.0348 19.1723 56.6651 14.1292C53.2954 9.08609 48.5059 5.15546 42.9023 2.83437C37.2987 0.513287 31.1327 -0.0940149 25.1839 1.08927C19.2352 2.27255 13.7709 5.19326 9.48207 9.48207C5.19326 13.7709 2.27255 19.2352 1.08927 25.1839C-0.0940149 31.1327 0.513287 37.2987 2.83437 42.9023C5.15546 48.5059 9.08609 53.2954 14.1292 56.6651C19.1723 60.0348 25.1014 61.8333 31.1667 61.8333C37.9772 61.8418 44.5928 59.5601 49.95 55.355L62.945 68.3883C63.3014 68.7476 63.7253 69.0328 64.1925 69.2274C64.6596 69.422 65.1606 69.5222 65.6667 69.5222C66.1727 69.5222 66.6738 69.422 67.1409 69.2274C67.608 69.0328 68.032 68.7476 68.3883 68.3883C68.7476 68.032 69.0328 67.608 69.2274 67.1409C69.422 66.6738 69.5222 66.1727 69.5222 65.6667C69.5222 65.1606 69.422 64.6596 69.2274 64.1925C69.0328 63.7253 68.7476 63.3014 68.3883 62.945ZM8.16668 31.1667C8.16668 26.6177 9.51561 22.1709 12.0429 18.3886C14.5702 14.6062 18.1623 11.6583 22.365 9.91745C26.5677 8.17664 31.1922 7.72116 35.6538 8.60862C40.1153 9.49608 44.2135 11.6866 47.4301 14.9032C50.6467 18.1198 52.8373 22.218 53.7247 26.6796C54.6122 31.1412 54.1567 35.7657 52.4159 39.9684C50.6751 44.1711 47.7271 47.7632 43.9448 50.2905C40.1625 52.8178 35.7157 54.1667 31.1667 54.1667C25.0667 54.1667 19.2166 51.7435 14.9032 47.4301C10.5899 43.1168 8.16668 37.2667 8.16668 31.1667Z" fill="#0B0C0B"/>
</svg>
